# xmcd CD database file
# Copyright (C) 1993-1998 Ti Kan
#
# Track frame offsets:
#	182
#	15635
#	30670
#	43065
#	56247
#	67070
#	78975
#	91537
#	104412
#	118287
#
# Disc length: 1713 seconds
#
# Revision: 1
# Processed by: cddbd v1.4b41PL1 Copyright (c) Steve Scherf et al.
# Submitted via: EasyCD2 v3.00 - Copyright (c) 1997 Greg Leichner
#
DISCID=8206af0a
DTITLE=The Jordanaires - Great Gospel Songs
DYEAR=1900
DGENRE=
TTITLE0=When The Roll Is Called Up Yonder
TTITLE1=Swing Low Sweet Chariot
TTITLE2=When We All Get To Heaven
TTITLE3=Sweet By And By
TTITLE4=Power In The Blood
TTITLE5=I Shall Not Be Moved
TTITLE6=In the Garden
TTITLE7=Love Lifted Me
TTITLE8=Leaning On The Everlasting Arms
TTITLE9=Canaan's Land
EXTD=1995 Curb Records  D-77810
EXTT0=
EXTT1=
EXTT2=
EXTT3=
EXTT4=
EXTT5=
EXTT6=
EXTT7=
EXTT8=
EXTT9=
PLAYORDER=
